<?xml version="1.0" encoding="UTF-8"?>
<svg id="_闅旂妯″紡" xmlns="http://www.w3.org/2000/svg" viewBox="0 0 92.46 66.11">
  <defs>
    <style>.cls-1{fill:#fff;}</style>
  </defs>
  <rect width="92.41" height="65.79" />
  <path class="cls-1"
    d="m56.23,35.66c.06.28.15.56.29.8.32.57.68,1.12,1.01,1.69.21.36.35.75.29,1.17-.06.45-.14.89-.22,1.33-.23,1.23-.47,2.45-.71,3.67-.37,1.91-.74,3.81-1.1,5.72-.32,1.76-.62,3.53-.93,5.29-.2,1.13-.43,2.25-.61,3.38-.22,1.39-.4,2.79-.59,4.19-.1.7-.18,1.4.03,2.1.1.33.15.74.5.88.34.14.74.16,1.11.21.08.01.16-.07.25-.11.19-.08.38-.2.58-.21.35-.02.65-.13.88-.38.61-.65,1.25-1.28,1.8-1.98,1.11-1.4,2.49-2.44,4.09-3.21,1.95-.95,3.98-1.67,6.15-1.93,1.51-.18,3.03-.39,4.54-.4,1.4,0,2.82.14,4.2.37,3.15.54,6.06,1.73,8.69,3.57.61.42,1.18.89,1.77,1.35.24.19.49.22.74.07.41-.25.85-.48,1.21-.79.8-.68.78-1.33.43-2.23-.11-.29-.33-.55-.55-.77-1.75-1.78-3.84-3.02-6.19-3.83-2.66-.91-5.43-1.39-8.22-1.68-1.72-.18-3.44-.17-5.15.03-1.63.19-3.25.46-4.83.96-1.91.61-3.81,1.24-5.56,2.27-.39.23-.8.44-1.23.67-.03-.1-.06-.15-.06-.19.02-.34,0-.68.06-1.01.22-1.33.43-2.67.69-3.99.51-2.58,1.05-5.15,1.59-7.73.34-1.63.68-3.27,1.07-4.88.13-.52.37-1.05.68-1.5.51-.74,1.25-1.24,2.03-1.67,1.68-.92,3.52-1.35,5.38-1.73,1.9-.4,3.83-.5,5.76-.6,1.64-.09,3.29-.1,4.94-.21.84-.05,1.67-.19,2.49-.35.98-.2,1.55-.89,1.89-1.77.09-.23.11-.5.1-.75-.04-.71-.48-1.17-1.1-1.44-1.5-.65-3.09-.76-4.69-.65-1.5.09-2.99.25-4.48.41-1.62.18-3.24.39-4.86.62-1.41.2-2.82.45-4.23.67-.4.06-.81.13-1.21.19-.17.02-.25-.07-.24-.23.03-.44.05-.88.1-1.32.1-.87.24-1.74.33-2.62.07-.74.1-1.49.14-2.24.08-1.54.17-3.07.23-4.61.04-1.2.06-2.4.06-3.6,0-1.13-.06-2.26-.04-3.38,0-.31.12-.69.32-.92.39-.44.85-.85,1.33-1.18,1.08-.74,2.25-1.33,3.49-1.77,2.53-.92,5.08-1.8,7.7-2.43,2.99-.73,5.99-1.42,9-2.1,1.62-.37,3.24-.69,4.57-1.8.25-.21.45-.43.48-.75.04-.45.05-.9.05-1.35,0-.09-.11-.21-.2-.27-.74-.44-1.56-.66-2.4-.71-1.24-.07-2.46.02-3.68.27-2.81.56-5.38,1.69-7.83,3.14-.79.47-1.59,1-2.45,1.28-2.28.73-4.59,1.36-6.96,1.72-1.6.24-3.2.53-4.81.73-1.75.21-3.52.33-5.28.5-.51.05-1.04.06-1.4.53-.12.16-.17.31-.09.51.26.6.49,1.22.78,1.81.42.83.93,1.63,1.32,2.47.27.59.49,1.22.59,1.86.24,1.44.42,2.89.58,4.35.15,1.37.29,2.75.35,4.13.05,1.04-.03,2.09-.04,3.13-.02,1.25-.22,2.46-.56,3.66-.35,1.21-.85,2.34-1.94,3.09-.46.31-.94.59-1.4.9-.55.37-.94.85-.79,1.57Z" />
  <path class="cls-1"
    d="m.97,65.73c.15,0,.35.04.45.13.19.17.35.16.56.06.11-.05.27-.14.34-.1.26.17.48,0,.73-.02.62-.06.86-.49.98-.99.6-2.52,1.11-5.06,1.78-7.56.9-3.34,1.86-6.67,2.9-9.97,1.1-3.5,2.4-6.93,3.88-10.3,1.05-2.38,2.2-4.72,3.31-7.08.11-.22.26-.43.39-.64.03,0,.06.01.09.02.03.09.06.18.08.27.25,1.17.52,2.34.74,3.51.39,2.13.75,4.27,1.13,6.41.33,1.89.65,3.79,1.02,5.68.3,1.53.62,3.05,1.02,4.55.48,1.81,1.04,3.6,1.6,5.39.71,2.23,1.62,4.38,2.83,6.4.79,1.31,1.62,2.6,2.66,3.73.69.75,1.43.63,2.31.47.09-.02.18-.11.23-.19.15-.22.3-.44.42-.68.5-1.03.69-2.14.83-3.26.12-.93.2-1.87.35-2.8.18-1.12.41-2.23.63-3.35.7-3.5,1.38-7.01,2.13-10.5.81-3.74,1.71-7.46,2.92-11.1.93-2.78,1.91-5.54,3.17-8.2,1.89-3.98,4.13-7.75,6.77-11.29,2.3-3.08,4.77-6.03,7.61-8.64.17-.15.35-.29.54-.41.23-.16.49-.26.57-.57.01-.06.13-.1.18-.16.1-.13.27-.26.28-.4.07-.7.13-1.41.12-2.11,0-.55-.19-1.07-.61-1.47-.13-.13-.26-.2-.43-.1-.33.19-.7.32-.98.57-1.7,1.48-3.39,2.96-5.06,4.48-2.45,2.23-4.64,4.69-6.6,7.35-2.1,2.85-4.01,5.82-5.65,8.95-.87,1.67-1.73,3.36-2.52,5.07-1.01,2.2-1.92,4.44-2.66,6.75-.67,2.08-1.33,4.18-1.85,6.3-.61,2.44-1.08,4.91-1.57,7.38-.21,1.05-.31,2.12-.46,3.19-.19,1.36-.41,2.71-.44,4.09-.02.71.19,1.48-.32,2.12-.03-.1-.05-.22-.09-.33-.28-.74-.61-1.46-.85-2.21-.58-1.83-1.17-3.65-1.66-5.5-.48-1.78-.87-3.58-1.24-5.38-.27-1.29-.46-2.6-.69-3.9-.13-.76-.26-1.51-.37-2.27-.11-.83-.19-1.67-.29-2.5-.17-1.46-.36-2.92-.52-4.39-.09-.85-.14-1.71-.2-2.57-.08-1.09-.17-2.19-.23-3.28-.04-.57-.04-1.15-.06-1.72-.06-1.8-.17-3.61-.18-5.41-.01-3.91.04-7.82.05-11.73,0-.36-.06-.74-.14-1.09-.08-.36-.3-.52-.68-.49-.3.03-.62.08-.9.19-1.16.44-1.65,1.43-1.93,2.54-.48,1.82-.91,3.65-1.39,5.47-.54,2.01-1.1,4.01-1.68,6-.66,2.28-1.34,4.56-2.04,6.83-.63,2.08-1.29,4.15-1.95,6.21-.66,2.05-1.32,4.09-2,6.14-.79,2.39-1.61,4.78-2.41,7.16-.85,2.53-1.71,5.07-2.53,7.61-.69,2.12-1.36,4.25-1.99,6.39-.37,1.27-.67,2.55-.96,3.84-.18.8-.3,1.61-.43,2.42-.1.61.35,1.06.96,1.03Z" />
</svg>